<svg xmlns="http://www.w3.org/2000/svg" viewBox="0 0 800 460" width="800" height="460" font-family="system-ui, -apple-system, Segoe UI, Roboto, sans-serif">
<defs>
<marker id="a" viewBox="0 0 10 10" refX="8" refY="5" markerWidth="6" markerHeight="6" orient="auto-start-reverse"><path d="M0 0L10 5L0 10z" fill="#e8ecf2"/></marker>
<marker id="ac" viewBox="0 0 10 10" refX="8" refY="5" markerWidth="6" markerHeight="6" orient="auto-start-reverse"><path d="M0 0L10 5L0 10z" fill="#d9bd62"/></marker>
<marker id="at" viewBox="0 0 10 10" refX="8" refY="5" markerWidth="6" markerHeight="6" orient="auto-start-reverse"><path d="M0 0L10 5L0 10z" fill="#8fd3dc"/></marker>
<marker id="ao" viewBox="0 0 10 10" refX="8" refY="5" markerWidth="6" markerHeight="6" orient="auto-start-reverse"><path d="M0 0L10 5L0 10z" fill="#f3a55a"/></marker>
</defs>
<rect width="800" height="460" rx="14" fill="#0b0e14"/>
<text x="24" y="36" font-size="18" font-weight="600" fill="#e8ecf2">Orbit and Saturn eclipse</text>
<text x="24" y="58" font-size="13" fill="#9aa2ae">Press I in the game to jump to the next eclipse</text>
<rect x="400.0" y="222.9" width="360.0" height="74.2" fill="#000" opacity="0.65"/>
<circle cx="400" cy="260" r="160.0" fill="none" stroke="#e8ecf2" stroke-dasharray="4 5" opacity="0.6"/>
<circle cx="400" cy="260" r="37.1" fill="#c9a46a"/>
<ellipse cx="400" cy="260" rx="77.9" ry="13.0" fill="none" stroke="#e6d3a8" stroke-width="2" opacity="0.7"/>
<path d="M555.6 222.9 A160.0 160.0 0 0 1 555.6 297.1" fill="none" stroke="#f3a55a" stroke-width="5"/>
<text x="567.6" y="264.0" font-size="12" fill="#f3a55a" text-anchor="start" font-weight="400">eclipse arc</text>
<line x1="40" y1="140" x2="130" y2="140" stroke="#f3a55a" stroke-width="2" marker-end="url(#ao)"/>
<line x1="40" y1="200" x2="130" y2="200" stroke="#f3a55a" stroke-width="2" marker-end="url(#ao)"/>
<line x1="40" y1="260" x2="130" y2="260" stroke="#f3a55a" stroke-width="2" marker-end="url(#ao)"/>
<line x1="40" y1="320" x2="130" y2="320" stroke="#f3a55a" stroke-width="2" marker-end="url(#ao)"/>
<line x1="40" y1="380" x2="130" y2="380" stroke="#f3a55a" stroke-width="2" marker-end="url(#ao)"/>
<text x="40.0" y="120.0" font-size="12" fill="#f3a55a" text-anchor="start" font-weight="400">sunlight</text>
<text x="400.0" y="325.1" font-size="12" fill="#e8ecf2" text-anchor="middle" font-weight="400">Saturn</text>
<circle cx="320.0" cy="121.4" r="5" fill="#d9bd62"/>
<text x="310.0" y="111.4" font-size="12" fill="#d9bd62" text-anchor="end" font-weight="400">station, orbit 260,000 km</text>
<text x="560.0" y="112.0" font-size="13" fill="#e8ecf2" text-anchor="start" font-weight="400">orbit: 37.57 h</text>
<text x="560.0" y="130.0" font-size="13" fill="#f3a55a" text-anchor="start" font-weight="400">in shadow: 2.78 h per orbit</text>
<text x="560.0" y="148.0" font-size="12" fill="#9aa2ae" text-anchor="start" font-weight="400">sunline fades, the limb glows</text>
<text x="24.0" y="440.0" font-size="12" fill="#9aa2ae" text-anchor="start" font-weight="400">Top view of the orbit plane, to scale. Sun lies in the orbit plane, 25 deg from the station axis.</text>
</svg>
