<svg xmlns="http://www.w3.org/2000/svg" viewBox="0 0 960 540" width="960" height="540" font-family="system-ui, -apple-system, Segoe UI, Roboto, sans-serif">
<defs>
<radialGradient id="bg" cx="0.5" cy="0.4" r="0.85"><stop offset="0" stop-color="#17121a"/><stop offset="0.6" stop-color="#0a090e"/><stop offset="1" stop-color="#040406"/></radialGradient>
<filter id="glow" x="-50%" y="-50%" width="200%" height="200%"><feGaussianBlur stdDeviation="2.6" result="b"/><feMerge><feMergeNode in="b"/><feMergeNode in="SourceGraphic"/></feMerge></filter>
<filter id="glow2" x="-100%" y="-100%" width="300%" height="300%"><feGaussianBlur stdDeviation="7" result="b"/><feMerge><feMergeNode in="b"/><feMergeNode in="b"/><feMergeNode in="SourceGraphic"/></feMerge></filter>
<filter id="blur" x="-50%" y="-50%" width="200%" height="200%"><feGaussianBlur stdDeviation="9"/></filter>
<linearGradient id="card" x1="0" y1="0" x2="0" y2="1"><stop offset="0" stop-color="#ffffff" stop-opacity="0.08"/><stop offset="1" stop-color="#ffffff" stop-opacity="0.02"/></linearGradient>
<radialGradient id="hole" cx="0.5" cy="0.5" r="0.5"><stop offset="0" stop-color="#000"/><stop offset="0.82" stop-color="#000"/><stop offset="1" stop-color="#000" stop-opacity="0"/></radialGradient>
<radialGradient id="ringglow" cx="0.5" cy="0.5" r="0.5"><stop offset="0.55" stop-color="#f3a55a" stop-opacity="0"/><stop offset="0.8" stop-color="#f3a55a" stop-opacity="0.35"/><stop offset="1" stop-color="#f3a55a" stop-opacity="0"/></radialGradient>
<marker id="a" viewBox="0 0 10 10" refX="7" refY="5" markerWidth="7" markerHeight="7" orient="auto-start-reverse"><path d="M0 1L9 5L0 9z" fill="#e8ecf2"/></marker><marker id="ag" viewBox="0 0 10 10" refX="7" refY="5" markerWidth="7" markerHeight="7" orient="auto-start-reverse"><path d="M0 1L9 5L0 9z" fill="#f3a55a"/></marker><marker id="at" viewBox="0 0 10 10" refX="7" refY="5" markerWidth="7" markerHeight="7" orient="auto-start-reverse"><path d="M0 1L9 5L0 9z" fill="#8fd3dc"/></marker><marker id="av" viewBox="0 0 10 10" refX="7" refY="5" markerWidth="7" markerHeight="7" orient="auto-start-reverse"><path d="M0 1L9 5L0 9z" fill="#b79cff"/></marker><marker id="ar" viewBox="0 0 10 10" refX="7" refY="5" markerWidth="7" markerHeight="7" orient="auto-start-reverse"><path d="M0 1L9 5L0 9z" fill="#ff6b5a"/></marker>
<marker id="tick" viewBox="0 0 10 10" refX="5" refY="5" markerWidth="8" markerHeight="8" orient="auto"><path d="M5 0V10" stroke="#e8ecf2" stroke-width="1.6"/></marker>
<radialGradient id="diskg" cx="0.5" cy="0.5" r="0.5"><stop offset="0.24" stop-color="#fff1cf"/><stop offset="0.4" stop-color="#ffd08a"/><stop offset="0.7" stop-color="#f3a55a" stop-opacity="0.75"/><stop offset="1" stop-color="#a0401c" stop-opacity="0.15"/></radialGradient>
</defs>
<rect width="960" height="540" rx="18" fill="url(#bg)"/>
<g><circle cx="434.3" cy="302.3" r="1.38" fill="#fff" opacity="0.24"/><circle cx="487.5" cy="317.2" r="0.36" fill="#fff" opacity="0.25"/><circle cx="604.7" cy="428.2" r="0.35" fill="#fff" opacity="0.18"/><circle cx="87.0" cy="437.2" r="0.78" fill="#fff" opacity="0.10"/><circle cx="942.9" cy="521.0" r="0.71" fill="#fff" opacity="0.29"/><circle cx="151.2" cy="8.1" r="0.54" fill="#fff" opacity="0.10"/><circle cx="182.6" cy="130.6" r="0.35" fill="#fff" opacity="0.24"/><circle cx="422.9" cy="454.9" r="0.53" fill="#fff" opacity="0.29"/><circle cx="479.8" cy="357.7" r="0.47" fill="#fff" opacity="0.17"/><circle cx="957.7" cy="537.7" r="1.12" fill="#fff" opacity="0.32"/><circle cx="302.7" cy="124.0" r="0.38" fill="#fff" opacity="0.11"/><circle cx="735.6" cy="216.2" r="1.14" fill="#fff" opacity="0.21"/><circle cx="919.7" cy="457.5" r="0.35" fill="#fff" opacity="0.15"/><circle cx="873.9" cy="253.8" r="1.57" fill="#fff" opacity="0.21"/><circle cx="70.1" cy="339.9" r="0.96" fill="#fff" opacity="0.17"/><circle cx="83.7" cy="179.6" r="1.51" fill="#fff" opacity="0.33"/><circle cx="113.3" cy="133.0" r="0.35" fill="#fff" opacity="0.10"/><circle cx="765.1" cy="95.9" r="0.58" fill="#fff" opacity="0.23"/><circle cx="183.1" cy="395.2" r="0.35" fill="#fff" opacity="0.29"/><circle cx="111.8" cy="227.2" r="0.36" fill="#fff" opacity="0.17"/><circle cx="932.1" cy="433.8" r="0.39" fill="#fff" opacity="0.37"/><circle cx="202.3" cy="212.9" r="1.16" fill="#fff" opacity="0.29"/><circle cx="96.3" cy="534.2" r="0.36" fill="#fff" opacity="0.17"/><circle cx="741.8" cy="177.6" r="0.38" fill="#fff" opacity="0.11"/><circle cx="86.5" cy="314.7" r="0.37" fill="#fff" opacity="0.28"/><circle cx="356.8" cy="244.7" r="1.50" fill="#fff" opacity="0.24"/><circle cx="551.6" cy="467.9" r="0.36" fill="#fff" opacity="0.13"/><circle cx="872.1" cy="441.6" r="0.37" fill="#fff" opacity="0.15"/><circle cx="709.8" cy="507.8" r="0.36" fill="#fff" opacity="0.40"/><circle cx="846.9" cy="325.9" r="0.45" fill="#fff" opacity="0.12"/><circle cx="37.1" cy="519.8" r="0.37" fill="#fff" opacity="0.32"/><circle cx="246.7" cy="444.8" r="0.63" fill="#fff" opacity="0.18"/><circle cx="168.4" cy="389.0" r="0.35" fill="#fff" opacity="0.16"/><circle cx="537.0" cy="460.3" r="0.65" fill="#fff" opacity="0.17"/><circle cx="880.7" cy="110.1" r="0.35" fill="#fff" opacity="0.17"/><circle cx="427.9" cy="32.6" r="0.36" fill="#fff" opacity="0.20"/><circle cx="549.3" cy="71.1" r="0.41" fill="#fff" opacity="0.38"/><circle cx="941.3" cy="354.7" r="0.78" fill="#fff" opacity="0.28"/><circle cx="134.7" cy="18.9" r="0.35" fill="#fff" opacity="0.38"/><circle cx="672.9" cy="519.9" r="0.35" fill="#fff" opacity="0.29"/><circle cx="462.9" cy="394.5" r="0.39" fill="#fff" opacity="0.41"/><circle cx="72.3" cy="294.9" r="0.87" fill="#fff" opacity="0.38"/><circle cx="707.6" cy="380.0" r="1.00" fill="#fff" opacity="0.38"/><circle cx="337.8" cy="370.0" r="1.30" fill="#fff" opacity="0.37"/><circle cx="400.5" cy="426.9" r="1.19" fill="#fff" opacity="0.27"/><circle cx="600.0" cy="206.5" r="0.61" fill="#fff" opacity="0.28"/><circle cx="77.0" cy="345.3" r="1.62" fill="#fff" opacity="0.37"/><circle cx="699.1" cy="209.8" r="0.87" fill="#fff" opacity="0.27"/><circle cx="422.9" cy="452.7" r="0.35" fill="#fff" opacity="0.33"/><circle cx="28.6" cy="324.7" r="0.49" fill="#fff" opacity="0.16"/><circle cx="670.4" cy="268.5" r="0.65" fill="#fff" opacity="0.39"/><circle cx="245.6" cy="6.1" r="0.39" fill="#fff" opacity="0.31"/><circle cx="194.5" cy="91.6" r="1.32" fill="#fff" opacity="0.30"/><circle cx="424.3" cy="481.5" r="0.40" fill="#fff" opacity="0.30"/><circle cx="190.6" cy="232.7" r="1.03" fill="#fff" opacity="0.38"/><circle cx="845.1" cy="207.6" r="0.61" fill="#fff" opacity="0.19"/><circle cx="130.7" cy="268.1" r="1.11" fill="#fff" opacity="0.36"/><circle cx="682.8" cy="513.0" r="0.38" fill="#fff" opacity="0.14"/><circle cx="432.6" cy="148.6" r="0.36" fill="#fff" opacity="0.22"/><circle cx="600.7" cy="266.7" r="0.39" fill="#fff" opacity="0.36"/><circle cx="942.8" cy="244.3" r="0.35" fill="#fff" opacity="0.09"/><circle cx="837.9" cy="22.4" r="0.81" fill="#fff" opacity="0.27"/><circle cx="296.7" cy="427.4" r="0.35" fill="#fff" opacity="0.13"/><circle cx="436.6" cy="13.4" r="1.09" fill="#fff" opacity="0.16"/><circle cx="135.2" cy="25.3" r="0.67" fill="#fff" opacity="0.23"/><circle cx="604.8" cy="353.7" r="1.03" fill="#fff" opacity="0.40"/><circle cx="657.1" cy="107.6" r="0.49" fill="#fff" opacity="0.14"/><circle cx="10.3" cy="255.0" r="0.82" fill="#fff" opacity="0.14"/><circle cx="261.5" cy="186.7" r="0.79" fill="#fff" opacity="0.25"/><circle cx="589.9" cy="408.4" r="0.43" fill="#fff" opacity="0.34"/><circle cx="870.0" cy="47.1" r="1.40" fill="#fff" opacity="0.32"/><circle cx="124.7" cy="244.9" r="0.67" fill="#fff" opacity="0.38"/><circle cx="361.7" cy="307.2" r="1.23" fill="#fff" opacity="0.35"/><circle cx="906.5" cy="250.4" r="0.71" fill="#fff" opacity="0.15"/><circle cx="693.1" cy="441.9" r="0.69" fill="#fff" opacity="0.32"/><circle cx="204.8" cy="486.0" r="1.58" fill="#fff" opacity="0.41"/><circle cx="515.5" cy="427.0" r="0.39" fill="#fff" opacity="0.38"/><circle cx="821.6" cy="188.2" r="0.35" fill="#fff" opacity="0.23"/><circle cx="528.3" cy="414.8" r="0.50" fill="#fff" opacity="0.09"/><circle cx="776.8" cy="34.6" r="1.02" fill="#fff" opacity="0.14"/><circle cx="321.6" cy="425.5" r="0.35" fill="#fff" opacity="0.13"/><circle cx="495.9" cy="390.7" r="1.12" fill="#fff" opacity="0.31"/><circle cx="907.9" cy="266.0" r="1.46" fill="#fff" opacity="0.11"/><circle cx="212.6" cy="284.4" r="0.38" fill="#fff" opacity="0.32"/><circle cx="613.3" cy="282.3" r="1.13" fill="#fff" opacity="0.27"/><circle cx="299.2" cy="205.9" r="1.14" fill="#fff" opacity="0.38"/><circle cx="199.9" cy="459.4" r="1.53" fill="#fff" opacity="0.26"/><circle cx="550.1" cy="108.5" r="0.55" fill="#fff" opacity="0.25"/><circle cx="581.0" cy="15.0" r="1.53" fill="#fff" opacity="0.25"/><circle cx="384.6" cy="432.6" r="0.58" fill="#fff" opacity="0.24"/><circle cx="663.3" cy="35.6" r="0.55" fill="#fff" opacity="0.22"/><circle cx="918.6" cy="498.6" r="0.38" fill="#fff" opacity="0.24"/><circle cx="121.9" cy="234.2" r="1.06" fill="#fff" opacity="0.38"/><circle cx="457.5" cy="171.3" r="0.36" fill="#fff" opacity="0.29"/><circle cx="888.3" cy="69.9" r="0.97" fill="#fff" opacity="0.09"/><circle cx="186.3" cy="122.7" r="0.77" fill="#fff" opacity="0.19"/><circle cx="341.1" cy="334.7" r="0.35" fill="#fff" opacity="0.32"/><circle cx="117.9" cy="275.7" r="0.37" fill="#fff" opacity="0.15"/><circle cx="509.1" cy="235.9" r="0.42" fill="#fff" opacity="0.22"/><circle cx="508.2" cy="86.3" r="0.36" fill="#fff" opacity="0.29"/><circle cx="612.9" cy="286.0" r="1.15" fill="#fff" opacity="0.28"/><circle cx="822.5" cy="125.6" r="0.88" fill="#fff" opacity="0.35"/><circle cx="866.6" cy="170.6" r="0.39" fill="#fff" opacity="0.39"/><circle cx="209.4" cy="539.1" r="1.26" fill="#fff" opacity="0.13"/><circle cx="229.8" cy="392.4" r="0.37" fill="#fff" opacity="0.11"/><circle cx="798.9" cy="227.7" r="0.99" fill="#fff" opacity="0.12"/><circle cx="386.7" cy="370.0" r="0.35" fill="#fff" opacity="0.15"/><circle cx="655.1" cy="492.1" r="1.53" fill="#fff" opacity="0.12"/><circle cx="485.5" cy="409.4" r="0.52" fill="#fff" opacity="0.31"/><circle cx="181.4" cy="38.1" r="0.35" fill="#fff" opacity="0.09"/><circle cx="529.6" cy="278.0" r="0.59" fill="#fff" opacity="0.13"/><circle cx="177.2" cy="110.1" r="1.12" fill="#fff" opacity="0.41"/><circle cx="889.8" cy="51.4" r="0.35" fill="#fff" opacity="0.40"/><circle cx="443.6" cy="412.9" r="0.40" fill="#fff" opacity="0.24"/><circle cx="494.7" cy="232.2" r="0.63" fill="#fff" opacity="0.09"/><circle cx="673.0" cy="455.9" r="0.36" fill="#fff" opacity="0.23"/><circle cx="709.8" cy="218.9" r="0.36" fill="#fff" opacity="0.14"/><circle cx="492.1" cy="8.3" r="1.28" fill="#fff" opacity="0.35"/><circle cx="676.5" cy="464.8" r="0.67" fill="#fff" opacity="0.22"/><circle cx="575.6" cy="272.3" r="1.58" fill="#fff" opacity="0.35"/><circle cx="247.9" cy="492.1" r="0.89" fill="#fff" opacity="0.34"/><circle cx="782.1" cy="219.0" r="1.29" fill="#fff" opacity="0.37"/><circle cx="667.0" cy="414.3" r="0.93" fill="#fff" opacity="0.22"/><circle cx="693.7" cy="38.1" r="0.40" fill="#fff" opacity="0.24"/><circle cx="10.2" cy="192.0" r="0.69" fill="#fff" opacity="0.29"/><circle cx="222.8" cy="510.1" r="0.73" fill="#fff" opacity="0.19"/><circle cx="633.4" cy="307.6" r="0.55" fill="#fff" opacity="0.21"/><circle cx="959.9" cy="346.8" r="0.80" fill="#fff" opacity="0.33"/><circle cx="940.9" cy="12.3" r="0.65" fill="#fff" opacity="0.33"/><circle cx="246.4" cy="216.8" r="0.35" fill="#fff" opacity="0.15"/><circle cx="360.6" cy="53.2" r="0.37" fill="#fff" opacity="0.38"/><circle cx="528.1" cy="274.2" r="1.53" fill="#fff" opacity="0.27"/><circle cx="955.3" cy="344.5" r="1.04" fill="#fff" opacity="0.11"/><circle cx="573.6" cy="410.0" r="0.35" fill="#fff" opacity="0.39"/><circle cx="153.5" cy="254.8" r="0.36" fill="#fff" opacity="0.25"/><circle cx="586.7" cy="31.6" r="1.45" fill="#fff" opacity="0.22"/><circle cx="505.7" cy="322.8" r="0.41" fill="#fff" opacity="0.18"/><circle cx="628.9" cy="302.7" r="0.38" fill="#fff" opacity="0.32"/><circle cx="284.2" cy="7.6" r="0.37" fill="#fff" opacity="0.10"/><circle cx="150.3" cy="407.5" r="0.43" fill="#fff" opacity="0.38"/><circle cx="718.4" cy="27.1" r="1.61" fill="#fff" opacity="0.39"/><circle cx="70.6" cy="489.0" r="0.45" fill="#fff" opacity="0.24"/><circle cx="934.2" cy="131.6" r="0.54" fill="#fff" opacity="0.39"/><circle cx="693.8" cy="252.9" r="1.57" fill="#fff" opacity="0.35"/><circle cx="579.5" cy="62.2" r="0.67" fill="#fff" opacity="0.23"/><circle cx="195.5" cy="28.1" r="0.54" fill="#fff" opacity="0.12"/><circle cx="425.1" cy="360.7" r="0.47" fill="#fff" opacity="0.17"/><circle cx="558.9" cy="226.5" r="0.96" fill="#fff" opacity="0.26"/><circle cx="957.7" cy="514.4" r="0.86" fill="#fff" opacity="0.16"/><circle cx="109.3" cy="482.1" r="0.98" fill="#fff" opacity="0.29"/><circle cx="344.8" cy="146.6" r="0.77" fill="#fff" opacity="0.27"/><circle cx="568.0" cy="341.9" r="0.91" fill="#fff" opacity="0.15"/><circle cx="239.0" cy="529.0" r="1.35" fill="#fff" opacity="0.37"/><circle cx="37.9" cy="32.8" r="0.38" fill="#fff" opacity="0.22"/><circle cx="598.4" cy="55.3" r="0.56" fill="#fff" opacity="0.11"/><circle cx="83.0" cy="365.2" r="0.57" fill="#fff" opacity="0.29"/><circle cx="358.3" cy="258.4" r="0.36" fill="#fff" opacity="0.20"/><circle cx="715.0" cy="452.8" r="0.35" fill="#fff" opacity="0.12"/><circle cx="776.8" cy="336.8" r="0.94" fill="#fff" opacity="0.15"/><circle cx="407.4" cy="139.4" r="1.04" fill="#fff" opacity="0.20"/></g>
<rect x="0.5" y="0.5" width="959" height="539" rx="18" fill="none" stroke="#ffffff" stroke-opacity="0.08"/>
<rect x="32" y="30" width="22" height="3" rx="1.5" fill="#f3a55a"/>
<text x="62.0" y="35.0" font-size="11" fill="#f3a55a" text-anchor="start" font-weight="600" letter-spacing="2.6">GARGANTUA · 01</text>
<text x="32.0" y="68.0" font-size="25" fill="#e8ecf2" text-anchor="start" font-weight="650" >Anatomy of a black hole</text>
<text x="32.0" y="92.0" font-size="13.5" fill="#9aa2ae" text-anchor="start" font-weight="400" >Every number in the experience is measured in rs, the Schwarzschild radius</text>
<rect x="32" y="112" width="420" height="320" rx="14" fill="url(#card)" stroke="#fff" stroke-opacity="0.08"/><clipPath id="p1"><rect x="32" y="112" width="420" height="320" rx="14"/></clipPath><text x="50.0" y="138.0" font-size="11" fill="#9aa2ae" text-anchor="start" font-weight="600" letter-spacing="2">TOP VIEW · TO SCALE</text>
<g clip-path="url(#p1)">
<circle cx="242" cy="280" r="140.8" fill="none" stroke="#8fd3dc" stroke-opacity="0.55" stroke-dasharray="3 5"/>
<path d="M318.8 280.0 L318.7 284.0 L318.4 288.0 L317.9 292.0 L317.1 296.0 L316.2 299.9 L315.0 303.7 L313.7 307.5 L312.2 311.2 L310.4 314.9 L308.5 318.4 L306.4 321.8 L304.1 325.1 L301.7 328.3 L299.1 331.4 L296.3 334.3 L293.4 337.1 L290.3 339.7 L287.1 342.1 L283.8 344.4 L280.4 346.5 L276.9 348.4 L273.2 350.2 L269.5 351.7 L265.7 353.0 L261.9 354.2 L258.0 355.1 L254.0 355.9 L250.0 356.4 L246.0 356.7 L242.0 356.8 L238.0 356.7 L234.0 356.4 L230.0 355.9 L226.0 355.1 L222.1 354.2 L218.3 353.0 L214.5 351.7 L210.8 350.2 L207.1 348.4 L203.6 346.5 L200.2 344.4 L196.9 342.1 L193.7 339.7 L190.6 337.1 L187.7 334.3 L184.9 331.4 L182.3 328.3 L179.9 325.1 L177.6 321.8 L175.5 318.4 L173.6 314.9 L171.8 311.2 L170.3 307.5 L169.0 303.7 L167.8 299.9 L166.9 296.0 L166.1 292.0 L165.6 288.0 L165.3 284.0 L165.2 280.0 L165.3 276.0 L165.6 272.0 L166.1 268.0 L166.9 264.0 L167.8 260.1 L169.0 256.3 L170.3 252.5 L171.8 248.8 L173.6 245.1 L175.5 241.6 L177.6 238.2 L179.9 234.9 L182.3 231.7 L184.9 228.6 L187.7 225.7 L190.6 222.9 L193.7 220.3 L196.9 217.9 L200.2 215.6 L203.6 213.5 L207.1 211.6 L210.8 209.8 L214.5 208.3 L218.3 207.0 L222.1 205.8 L226.0 204.9 L230.0 204.1 L234.0 203.6 L238.0 203.3 L242.0 203.2 L246.0 203.3 L250.0 203.6 L254.0 204.1 L258.0 204.9 L261.9 205.8 L265.7 207.0 L269.5 208.3 L273.2 209.8 L276.9 211.6 L280.4 213.5 L283.8 215.6 L287.1 217.9 L290.3 220.3 L293.4 222.9 L296.3 225.7 L299.1 228.6 L301.7 231.7 L304.1 234.9 L306.4 238.2 L308.5 241.6 L310.4 245.1 L312.2 248.8 L313.7 252.5 L315.0 256.3 L316.2 260.1 L317.1 264.0 L317.9 268.0 L318.4 272.0 L318.7 276.0 L318.8 280.0 Z M261.2 280.0 L261.2 279.0 L261.1 278.0 L261.0 277.0 L260.8 276.0 L260.5 275.0 L260.3 274.1 L259.9 273.1 L259.5 272.2 L259.1 271.3 L258.6 270.4 L258.1 269.5 L257.5 268.7 L256.9 267.9 L256.3 267.2 L255.6 266.4 L254.8 265.7 L254.1 265.1 L253.3 264.5 L252.5 263.9 L251.6 263.4 L250.7 262.9 L249.8 262.5 L248.9 262.1 L247.9 261.7 L247.0 261.5 L246.0 261.2 L245.0 261.0 L244.0 260.9 L243.0 260.8 L242.0 260.8 L241.0 260.8 L240.0 260.9 L239.0 261.0 L238.0 261.2 L237.0 261.5 L236.1 261.7 L235.1 262.1 L234.2 262.5 L233.3 262.9 L232.4 263.4 L231.5 263.9 L230.7 264.5 L229.9 265.1 L229.2 265.7 L228.4 266.4 L227.7 267.2 L227.1 267.9 L226.5 268.7 L225.9 269.5 L225.4 270.4 L224.9 271.3 L224.5 272.2 L224.1 273.1 L223.7 274.1 L223.5 275.0 L223.2 276.0 L223.0 277.0 L222.9 278.0 L222.8 279.0 L222.8 280.0 L222.8 281.0 L222.9 282.0 L223.0 283.0 L223.2 284.0 L223.5 285.0 L223.7 285.9 L224.1 286.9 L224.5 287.8 L224.9 288.7 L225.4 289.6 L225.9 290.5 L226.5 291.3 L227.1 292.1 L227.7 292.8 L228.4 293.6 L229.2 294.3 L229.9 294.9 L230.7 295.5 L231.5 296.1 L232.4 296.6 L233.3 297.1 L234.2 297.5 L235.1 297.9 L236.1 298.3 L237.0 298.5 L238.0 298.8 L239.0 299.0 L240.0 299.1 L241.0 299.2 L242.0 299.2 L243.0 299.2 L244.0 299.1 L245.0 299.0 L246.0 298.8 L247.0 298.5 L247.9 298.3 L248.9 297.9 L249.8 297.5 L250.7 297.1 L251.6 296.6 L252.5 296.1 L253.3 295.5 L254.1 294.9 L254.8 294.3 L255.6 293.6 L256.3 292.8 L256.9 292.1 L257.5 291.3 L258.1 290.5 L258.6 289.6 L259.1 288.7 L259.5 287.8 L259.9 286.9 L260.3 285.9 L260.5 285.0 L260.8 284.0 L261.0 283.0 L261.1 282.0 L261.2 281.0 L261.2 280.0 Z" fill="url(#diskg)" fill-rule="evenodd" filter="url(#glow)"/>
<path d="M239.2 225.5 L244.5 225.5 L249.8 226.1 L255.0 227.3 L260.0 228.9 L264.9 231.0 L269.5 233.5 L273.9 236.5 L277.9 239.9 L281.6 243.6 L284.9 247.7" fill="none" stroke="#fff6dc" stroke-opacity="0.43" stroke-width="1.1"/>
<path d="M295.8 251.4 L297.1 254.3 L298.3 257.2 L299.3 260.2 L300.1 263.2 L300.8 266.3 L301.4 269.3 L301.7 272.4 L302.0 275.5 L302.0 278.7 L301.9 281.8" fill="none" stroke="#fff6dc" stroke-opacity="0.29" stroke-width="1.1"/>
<path d="M199.4 222.2 L205.7 218.1 L212.4 214.8 L219.3 212.1 L226.5 210.2 L233.8 209.1 L241.3 208.7 L248.7 209.1 L256.0 210.3 L263.1 212.2 L270.0 214.9" fill="none" stroke="#fff6dc" stroke-opacity="0.18" stroke-width="1.1"/>
<path d="M243.0 326.3 L239.2 326.2 L235.4 325.7 L231.7 324.9 L228.0 323.8 L224.5 322.4 L221.1 320.7 L217.9 318.8 L214.8 316.6 L211.9 314.1 L209.3 311.5" fill="none" stroke="#fff6dc" stroke-opacity="0.32" stroke-width="1.1"/>
<path d="M246.5 301.3 L245.1 301.5 L243.6 301.6 L242.2 301.5 L240.8 301.4 L239.3 301.2 L238.0 300.9 L236.6 300.5 L235.3 300.0 L234.0 299.4 L232.8 298.7" fill="none" stroke="#fff6dc" stroke-opacity="0.42" stroke-width="1.1"/>
<path d="M275.5 332.5 L270.2 335.4 L264.6 337.8 L258.8 339.7 L252.9 340.9 L246.9 341.6 L240.8 341.7 L234.8 341.2 L228.9 340.1 L223.1 338.4 L217.5 336.2" fill="none" stroke="#fff6dc" stroke-opacity="0.19" stroke-width="1.1"/>
<path d="M280.0 318.8 L277.9 320.6 L275.8 322.3 L273.6 323.8 L271.3 325.3 L268.9 326.6 L266.5 327.8 L264.1 328.9 L261.6 329.8 L259.0 330.7 L256.4 331.4" fill="none" stroke="#fff6dc" stroke-opacity="0.41" stroke-width="1.1"/>
<path d="M249.0 311.6 L245.5 312.1 L242.0 312.2 L238.5 311.9 L235.1 311.2 L231.7 310.2 L228.5 308.8 L225.5 307.1 L222.8 305.1 L220.2 302.8 L217.9 300.2" fill="none" stroke="#fff6dc" stroke-opacity="0.41" stroke-width="1.1"/>
<path d="M277.6 271.2 L278.1 274.2 L278.4 277.2 L278.4 280.2 L278.2 283.2 L277.7 286.1 L277.0 289.0 L276.0 291.8 L274.8 294.5 L273.4 297.1 L271.8 299.6" fill="none" stroke="#fff6dc" stroke-opacity="0.35" stroke-width="1.1"/>
<path d="M271.9 268.4 L272.8 271.2 L273.4 274.0 L273.7 276.9 L273.7 279.8 L273.5 282.7 L273.1 285.6 L272.3 288.4 L271.3 291.1 L270.1 293.7 L268.7 296.1" fill="none" stroke="#fff6dc" stroke-opacity="0.44" stroke-width="1.1"/>
<path d="M221.1 345.9 L216.5 344.2 L212.0 342.1 L207.7 339.7 L203.5 337.0 L199.6 334.1 L195.9 330.8 L192.5 327.3 L189.3 323.6 L186.4 319.6 L183.8 315.5" fill="none" stroke="#fff6dc" stroke-opacity="0.20" stroke-width="1.1"/>
<path d="M268.6 291.5 L267.6 293.3 L266.6 294.9 L265.4 296.5 L264.2 298.0 L262.8 299.4 L261.4 300.7 L259.9 301.9 L258.3 303.0 L256.7 304.0 L254.9 304.8" fill="none" stroke="#fff6dc" stroke-opacity="0.33" stroke-width="1.1"/>
<path d="M232.7 260.8 L234.1 260.3 L235.5 259.9 L237.0 259.6 L238.4 259.4 L239.9 259.3 L241.4 259.3 L242.8 259.4 L244.2 259.6 L245.7 259.9 L247.0 260.3" fill="none" stroke="#fff6dc" stroke-opacity="0.24" stroke-width="1.1"/>
<path d="M177.4 287.9 L177.1 283.4 L177.1 278.9 L177.4 274.4 L178.0 270.0 L179.0 265.7 L180.2 261.4 L181.7 257.2 L183.5 253.1 L185.6 249.2 L187.9 245.5" fill="none" stroke="#fff6dc" stroke-opacity="0.29" stroke-width="1.1"/>
<path d="M297.3 300.7 L294.6 306.5 L291.3 312.0 L287.5 317.1 L283.2 321.7 L278.3 325.9 L273.1 329.5 L267.5 332.4 L261.7 334.8 L255.6 336.5 L249.4 337.6" fill="none" stroke="#fff6dc" stroke-opacity="0.16" stroke-width="1.1"/>
<path d="M276.5 229.2 L279.0 231.1 L281.4 233.1 L283.6 235.2 L285.8 237.5 L287.9 239.8 L289.8 242.3 L291.6 244.8 L293.2 247.5 L294.7 250.2 L296.1 252.9" fill="none" stroke="#fff6dc" stroke-opacity="0.39" stroke-width="1.1"/>
<path d="M206.1 260.7 L207.2 258.9 L208.4 257.3 L209.6 255.6 L211.0 254.1 L212.4 252.6 L213.9 251.2 L215.4 249.9 L217.0 248.7 L218.7 247.6 L220.4 246.5" fill="none" stroke="#fff6dc" stroke-opacity="0.16" stroke-width="1.1"/>
<path d="M271.6 271.4 L272.0 273.3 L272.3 275.2 L272.4 277.1 L272.4 279.0 L272.4 280.8 L272.2 282.7 L271.8 284.5 L271.4 286.4 L270.9 288.1 L270.2 289.9" fill="none" stroke="#fff6dc" stroke-opacity="0.38" stroke-width="1.1"/>
<path d="M308.4 254.7 L310.0 259.5 L311.2 264.3 L312.0 269.3 L312.5 274.2 L312.6 279.2 L312.4 284.2 L311.8 289.2 L310.9 294.1 L309.7 298.9 L308.1 303.6" fill="none" stroke="#fff6dc" stroke-opacity="0.26" stroke-width="1.1"/>
<path d="M249.9 231.3 L252.6 231.9 L255.3 232.7 L257.9 233.6 L260.5 234.7 L263.0 235.9 L265.4 237.2 L267.7 238.7 L269.9 240.3 L272.1 242.0 L274.1 243.8" fill="none" stroke="#fff6dc" stroke-opacity="0.37" stroke-width="1.1"/>
<path d="M282.7 230.6 L285.1 232.9 L287.5 235.3 L289.7 237.8 L291.7 240.4 L293.7 243.1 L295.4 245.9 L297.1 248.8 L298.5 251.7 L299.8 254.7 L301.0 257.8" fill="none" stroke="#fff6dc" stroke-opacity="0.43" stroke-width="1.1"/>
<path d="M228.0 301.9 L226.2 300.5 L224.5 299.0 L223.0 297.4 L221.7 295.6 L220.5 293.7 L219.4 291.8 L218.6 289.7 L217.9 287.6 L217.5 285.5 L217.2 283.4" fill="none" stroke="#fff6dc" stroke-opacity="0.43" stroke-width="1.1"/>
<path d="M277.0 261.9 L278.3 264.9 L279.3 268.0 L280.1 271.2 L280.6 274.3 L280.8 277.6 L280.8 280.8 L280.5 284.0 L280.0 287.1 L279.2 290.2 L278.1 293.2" fill="none" stroke="#fff6dc" stroke-opacity="0.24" stroke-width="1.1"/>
<path d="M258.8 314.3 L256.9 315.0 L254.9 315.7 L252.9 316.3 L250.9 316.7 L248.8 317.0 L246.8 317.3 L244.7 317.4 L242.7 317.4 L240.6 317.3 L238.6 317.0" fill="none" stroke="#fff6dc" stroke-opacity="0.19" stroke-width="1.1"/>
<path d="M300.2 278.8 L300.0 282.3 L299.7 285.7 L299.2 289.1 L298.4 292.5 L297.5 295.8 L296.3 299.1 L295.0 302.2 L293.5 305.3 L291.8 308.3 L290.0 311.2" fill="none" stroke="#fff6dc" stroke-opacity="0.16" stroke-width="1.1"/>
<path d="M169.5 264.5 L170.9 259.2 L172.8 254.0 L175.0 249.0 L177.5 244.1 L180.5 239.5 L183.7 235.1 L187.3 230.9 L191.2 227.1 L195.3 223.5 L199.7 220.3" fill="none" stroke="#fff6dc" stroke-opacity="0.22" stroke-width="1.1"/>
<circle cx="242.0" cy="280.0" r="6.4" fill="#000" stroke="#000" stroke-width="1"/>
<circle cx="242" cy="280" r="9.6" fill="none" stroke="#8fd3dc" stroke-width="1.2"/>
<circle cx="242" cy="280" r="19.2" fill="none" stroke="#e8ecf2" stroke-width="1.4"/>
<g filter="url(#glow)"><rect x="343.9" y="186.5" width="12" height="6" rx="1.5" fill="#8fd3dc"/><line x1="336.9" y1="189.5" x2="362.9" y2="189.5" stroke="#8fd3dc" stroke-width="1.6"/></g>
<path d="M365.7 212.7 A140.8 140.8 0 0 1 381.3 259.2" fill="none" stroke="#8fd3dc" stroke-width="1.8" marker-end="url(#at)"/>
</g>
<path d="M345.9 185.5 L424.0 150.0" stroke="#8fd3dc" stroke-opacity="0.55" stroke-width="1.2" fill="none"/><circle cx="345.9" cy="185.5" r="3" fill="#8fd3dc"/><rect x="326.7" y="138.2" width="97.3" height="23.5" rx="11.8" fill="rgba(10,10,14,0.85)" stroke="rgba(255,255,255,0.16)"/><text x="375.4" y="154.1" font-size="11.5" fill="#8fd3dc" text-anchor="middle" font-weight="500" >relay, 22 rs</text>
<path d="M293.2 318.4 L424.0 412.0" stroke="#f3a55a" stroke-opacity="0.55" stroke-width="1.2" fill="none"/><circle cx="293.2" cy="318.4" r="3" fill="#f3a55a"/><rect x="307.4" y="400.2" width="116.6" height="23.5" rx="11.8" fill="rgba(10,10,14,0.85)" stroke="rgba(255,255,255,0.16)"/><text x="365.7" y="416.1" font-size="11.5" fill="#f3a55a" text-anchor="middle" font-weight="500" >disk 3 to 12 rs</text>
<path d="M228.4 293.6 L50.0 412.0" stroke="#e8ecf2" stroke-opacity="0.55" stroke-width="1.2" fill="none"/><circle cx="228.4" cy="293.6" r="3" fill="#e8ecf2"/><rect x="50.0" y="400.2" width="78.0" height="23.5" rx="11.8" fill="rgba(10,10,14,0.85)" stroke="rgba(255,255,255,0.16)"/><text x="89.0" y="416.1" font-size="11.5" fill="#e8ecf2" text-anchor="middle" font-weight="500" >ISCO 3 rs</text>
<path d="M235.2 273.2 L50.0 150.0" stroke="#8fd3dc" stroke-opacity="0.55" stroke-width="1.2" fill="none"/><circle cx="235.2" cy="273.2" r="3" fill="#8fd3dc"/><rect x="50.0" y="138.2" width="148.8" height="23.5" rx="11.8" fill="rgba(10,10,14,0.85)" stroke="rgba(255,255,255,0.16)"/><text x="124.4" y="154.1" font-size="11.5" fill="#8fd3dc" text-anchor="middle" font-weight="500" >photon sphere 1.5 rs</text>
<text x="500.0" y="132.0" font-size="11" fill="#9aa2ae" text-anchor="start" font-weight="600" letter-spacing="2">THE RADII THAT MATTER · LOG SCALE</text>
<line x1="500" y1="164" x2="900" y2="164" stroke="#fff" stroke-opacity="0.25"/>
<line x1="524.6" y1="159" x2="524.6" y2="169" stroke="#fff" stroke-opacity="0.35"/><text x="524.6" y="155.0" font-size="10.5" fill="#9aa2ae" text-anchor="middle" font-weight="400" >1 rs</text>
<line x1="601.1" y1="159" x2="601.1" y2="169" stroke="#fff" stroke-opacity="0.35"/><text x="601.1" y="155.0" font-size="10.5" fill="#9aa2ae" text-anchor="middle" font-weight="400" >2 rs</text>
<line x1="702.3" y1="159" x2="702.3" y2="169" stroke="#fff" stroke-opacity="0.35"/><text x="702.3" y="155.0" font-size="10.5" fill="#9aa2ae" text-anchor="middle" font-weight="400" >5 rs</text>
<line x1="778.8" y1="159" x2="778.8" y2="169" stroke="#fff" stroke-opacity="0.35"/><text x="778.8" y="155.0" font-size="10.5" fill="#9aa2ae" text-anchor="middle" font-weight="400" >10 rs</text>
<line x1="855.3" y1="159" x2="855.3" y2="169" stroke="#fff" stroke-opacity="0.35"/><text x="855.3" y="155.0" font-size="10.5" fill="#9aa2ae" text-anchor="middle" font-weight="400" >20 rs</text>
<circle cx="524.6" cy="164" r="4" fill="#ffffff" filter="url(#glow)"/>
<circle cx="504" cy="192" r="4" fill="#ffffff"/>
<text x="516.0" y="196.0" font-size="13" fill="#ffffff" text-anchor="start" font-weight="600" >Event horizon</text><text x="516.0" y="212.0" font-size="11" fill="#9aa2ae" text-anchor="start" font-weight="400" >no way back, even for light</text>
<text x="928.0" y="196.0" font-size="13" fill="#ffffff" text-anchor="end" font-weight="600" >1 rs</text><text x="928.0" y="212.0" font-size="11" fill="#9aa2ae" text-anchor="end" font-weight="400" >2.0 AU</text>
<circle cx="569.4" cy="164" r="4" fill="#8fd3dc" filter="url(#glow)"/>
<circle cx="504" cy="232" r="4" fill="#8fd3dc"/>
<text x="516.0" y="236.0" font-size="13" fill="#8fd3dc" text-anchor="start" font-weight="600" >Photon sphere</text><text x="516.0" y="252.0" font-size="11" fill="#9aa2ae" text-anchor="start" font-weight="400" >light can circle the hole (unstable)</text>
<text x="928.0" y="236.0" font-size="13" fill="#8fd3dc" text-anchor="end" font-weight="600" >1.5 rs</text><text x="928.0" y="252.0" font-size="11" fill="#9aa2ae" text-anchor="end" font-weight="400" >3.0 AU</text>
<circle cx="601.1" cy="164" r="4" fill="#b79cff" filter="url(#glow)"/>
<circle cx="504" cy="272" r="4" fill="#b79cff"/>
<text x="516.0" y="276.0" font-size="13" fill="#b79cff" text-anchor="start" font-weight="600" >Marginally bound orbit</text><text x="516.0" y="292.0" font-size="11" fill="#9aa2ae" text-anchor="start" font-weight="400" >zoom-whirl happens here</text>
<text x="928.0" y="276.0" font-size="13" fill="#b79cff" text-anchor="end" font-weight="600" >2 rs</text><text x="928.0" y="292.0" font-size="11" fill="#9aa2ae" text-anchor="end" font-weight="400" >3.9 AU</text>
<circle cx="645.9" cy="164" r="4" fill="#e8ecf2" filter="url(#glow)"/>
<circle cx="504" cy="312" r="4" fill="#e8ecf2"/>
<text x="516.0" y="316.0" font-size="13" fill="#e8ecf2" text-anchor="start" font-weight="600" >ISCO, inner edge of the disk</text><text x="516.0" y="332.0" font-size="11" fill="#9aa2ae" text-anchor="start" font-weight="400" >last stable circular orbit</text>
<text x="928.0" y="316.0" font-size="13" fill="#e8ecf2" text-anchor="end" font-weight="600" >3 rs</text><text x="928.0" y="332.0" font-size="11" fill="#9aa2ae" text-anchor="end" font-weight="400" >5.9 AU</text>
<circle cx="798.9" cy="164" r="4" fill="#f3a55a" filter="url(#glow)"/>
<circle cx="504" cy="352" r="4" fill="#f3a55a"/>
<text x="516.0" y="356.0" font-size="13" fill="#f3a55a" text-anchor="start" font-weight="600" >Outer edge of the disk</text><text x="516.0" y="372.0" font-size="11" fill="#9aa2ae" text-anchor="start" font-weight="400" >the disk spans 3 to 12 rs</text>
<text x="928.0" y="356.0" font-size="13" fill="#f3a55a" text-anchor="end" font-weight="600" >12 rs</text><text x="928.0" y="372.0" font-size="11" fill="#9aa2ae" text-anchor="end" font-weight="400" >23.7 AU</text>
<circle cx="865.8" cy="164" r="4" fill="#8fd3dc" filter="url(#glow)"/>
<circle cx="504" cy="392" r="4" fill="#8fd3dc"/>
<text x="516.0" y="396.0" font-size="13" fill="#8fd3dc" text-anchor="start" font-weight="600" >Relay orbit, mission start</text><text x="516.0" y="412.0" font-size="11" fill="#9aa2ae" text-anchor="start" font-weight="400" >its clock runs 0.9653x</text>
<text x="928.0" y="396.0" font-size="13" fill="#8fd3dc" text-anchor="end" font-weight="600" >22 rs</text><text x="928.0" y="412.0" font-size="11" fill="#9aa2ae" text-anchor="end" font-weight="400" >43.4 AU</text>
<rect x="32.0" y="448" width="215.0" height="62" rx="12" fill="url(#card)" stroke="#ffffff" stroke-opacity="0.10"/><text x="48.0" y="482" font-size="25" font-weight="700" fill="#f3a55a">1e8<tspan font-size="13" font-weight="500" fill="#e8ecf2" dx="4">Suns</tspan></text><text x="48.0" y="502.0" font-size="11.5" fill="#9aa2ae" text-anchor="start" font-weight="400" >assumed mass (game)</text>
<rect x="259.0" y="448" width="215.0" height="62" rx="12" fill="url(#card)" stroke="#ffffff" stroke-opacity="0.10"/><text x="275.0" y="482" font-size="25" font-weight="700" fill="#e8ecf2">1.97<tspan font-size="13" font-weight="500" fill="#e8ecf2" dx="4">AU</tspan></text><text x="275.0" y="502.0" font-size="11.5" fill="#9aa2ae" text-anchor="start" font-weight="400" >1 rs = 295 million km</text>
<rect x="486.0" y="448" width="215.0" height="62" rx="12" fill="url(#card)" stroke="#ffffff" stroke-opacity="0.10"/><text x="502.0" y="482" font-size="25" font-weight="700" fill="#8fd3dc">16.4<tspan font-size="13" font-weight="500" fill="#e8ecf2" dx="4">min</tspan></text><text x="502.0" y="502.0" font-size="11.5" fill="#9aa2ae" text-anchor="start" font-weight="400" >rs/c: light crosses 1 rs</text>
<rect x="713.0" y="448" width="215.0" height="62" rx="12" fill="url(#card)" stroke="#ffffff" stroke-opacity="0.10"/><text x="729.0" y="482" font-size="25" font-weight="700" fill="#ffd08a">6.63<tspan font-size="13" font-weight="500" fill="#e8ecf2" dx="4">°</tspan></text><text x="729.0" y="502.0" font-size="11.5" fill="#9aa2ae" text-anchor="start" font-weight="400" >shadow radius seen from 22 rs</text>
</svg>
